<svg width="25" height="25" viewBox="0 0 25 25" fill="none" xmlns="http://www.w3.org/2000/svg">
<path d="M11.3962 17.2796C11.2649 17.2798 11.1349 17.2542 11.0135 17.2041C10.8922 17.154 10.782 17.0804 10.6892 16.9876L6.44716 12.7446C6.35159 12.6524 6.27533 12.5421 6.22283 12.4201C6.17034 12.2982 6.14266 12.167 6.14142 12.0342C6.14017 11.9014 6.16538 11.7697 6.21557 11.6468C6.26577 11.5238 6.33994 11.4121 6.43377 11.3182C6.52759 11.2242 6.63919 11.1499 6.76205 11.0995C6.88491 11.0492 7.01657 11.0238 7.14935 11.0248C7.28213 11.0259 7.41336 11.0534 7.53541 11.1057C7.65745 11.158 7.76784 11.2341 7.86016 11.3296L11.3952 14.8646L17.7602 8.50156C17.9477 8.31392 18.202 8.20845 18.4673 8.20836C18.7326 8.20827 18.987 8.31355 19.1747 8.50106C19.3623 8.68857 19.4678 8.94294 19.4679 9.20821C19.468 9.47348 19.3627 9.72792 19.1752 9.91556L12.1032 16.9876C12.0103 17.0804 11.9001 17.154 11.7788 17.2041C11.6575 17.2542 11.5274 17.2798 11.3962 17.2796Z" fill="#2FAB73"/>
</svg>
